#N canvas 302 56 398 428 10;
#X obj 40 382 ctlout 16;
#X obj 43 362 hsl 80 15 0 127 0 0 empty empty CLK_DIV 40 -8 0 10 -262144
-1 -1 0 1;
#X obj 40 112 metro, f 12;
#X obj 109 91 expr 60000/$f1;
#X obj 40 133 f;
#X obj 70 133 + 1;
#X obj 40 196 bng 15 250 50 0 empty empty empty 17 7 0 10 -262144 -1
-1;
#X obj 136 362 hsl 80 15 0 127 0 0 empty empty OCTAVE 46 -8 0 10 -262144
-1 -1 0 1;
#X obj 133 382 ctlout 17;
#X obj 133 279 random 127;
#X obj 40 237 moses 80, f 16;
#X obj 40 258 bang;
#X obj 133 258 bang;
#X obj 40 279 random 100;
#X obj 40 216 random 100;
#X msg 97 321 90;
#X msg 40 321 12;
#N canvas 0 23 311 300 midiclock 0;
#X msg 249 178 252;
#X msg 174 178 250;
#X msg 13 178 248;
#X obj 70 116 expr (60000/$f1/24);
#X msg 83 178 251;
#X text 197 178 start;
#X text 108 178 continue;
#X text 273 178 stop;
#X obj 174 158 bng 15 250 50 0 empty empty empty 17 7 0 10 -262144
-1 -1;
#X obj 249 158 bng 15 250 50 0 empty empty empty 17 7 0 10 -262144
-1 -1;
#X obj 13 67 tgl 15 0 empty empty empty 17 7 0 10 -262144 -1 -1 0 1
;
#X obj 174 137 sel 1, f 13;
#X msg 70 74 120;
#X obj 70 53 loadbang;
#X obj 13 11 inlet;
#X obj 123 11 inlet;
#X obj 208 11 inlet;
#X text 51 11 start/stop;
#X text 160 11 BPM;
#X text 245 11 channel;
#X obj 13 228 midiout 1, f 33;
#X obj 113 268 outlet;
#X obj 170 268 outlet;
#X obj 70 95 f;
#X obj 13 137 metro, f 10;
#X text 210 268 BPM;
#X text 49 267 start/stop;
#X text 38 178 tic;
#X connect 0 0 20 0;
#X connect 1 0 20 0;
#X connect 2 0 20 0;
#X connect 3 0 24 1;
#X connect 4 0 20 0;
#X connect 8 0 1 0;
#X connect 9 0 0 0;
#X connect 10 0 11 0;
#X connect 10 0 21 0;
#X connect 10 0 24 0;
#X connect 11 0 8 0;
#X connect 11 1 9 0;
#X connect 12 0 23 0;
#X connect 13 0 12 0;
#X connect 14 0 10 0;
#X connect 15 0 23 0;
#X connect 16 0 20 1;
#X connect 23 0 3 0;
#X connect 23 0 22 0;
#X connect 24 0 2 0;
#X restore 40 70 pd midiclock;
#X obj 40 40 tgl 15 0 empty empty ON/OFF -7 -8 0 10 -262144 -1 -1 0
1;
#X floatatom 74 39 5 0 0 2 BPM - -;
#X obj 40 300 moses 40, f 10;
#X obj 40 154 % 2;
#X obj 40 175 sel 0;
#X text 140 237 <- set 20% chance of changing octave;
#X connect 1 0 0 0;
#X connect 2 0 4 0;
#X connect 3 0 2 1;
#X connect 4 0 5 0;
#X connect 4 0 21 0;
#X connect 5 0 4 1;
#X connect 6 0 14 0;
#X connect 7 0 8 0;
#X connect 9 0 7 0;
#X connect 10 0 11 0;
#X connect 10 1 12 0;
#X connect 11 0 13 0;
#X connect 12 0 9 0;
#X connect 13 0 20 0;
#X connect 14 0 10 0;
#X connect 15 0 1 0;
#X connect 16 0 1 0;
#X connect 17 0 2 0;
#X connect 17 1 3 0;
#X connect 18 0 17 0;
#X connect 19 0 17 1;
#X connect 20 0 16 0;
#X connect 20 1 15 0;
#X connect 21 0 22 0;
#X connect 22 0 6 0;
